{"glyphs":{":":{"x_min":0,"x_max":238,"ha":238,"o":"m 72 38 q 72 48 76 56 q 80 65 86 71 q 92 78 100 81 q 108 85 118 85 q 128 85 136 81 q 145 78 151 71 q 158 65 161 56 q 165 48 165 38 q 165 28 161 20 q 158 12 151 6 q 145 0 136 -4 q 128 -8 118 -8 q 99 -8 86 6 q 72 19 72 38 z m 72 437 q 72 446 76 455 q 80 464 86 470 q 92 476 100 480 q 108 484 118 484 q 128 484 136 480 q 145 476 151 470 q 158 464 161 455 q 165 446 165 437 q 165 427 161 419 q 158 410 151 404 q 145 398 136 394 q 128 391 118 391 q 99 391 86 404 q 72 418 72 437 z"},"$":{"x_min":0,"x_max":580,"ha":580,"o":"m 271 -8 q 207 -4 160 20 q 112 44 76 84 l 90 104 q 96 112 104 112 q 108 112 115 106 q 122 100 131 92 q 140 84 154 74 q 166 64 184 56 q 201 47 223 40 q 245 34 273 32 l 289 350 q 255 361 223 374 q 190 387 165 407 q 140 428 124 457 q 109 487 109 532 q 109 566 122 599 q 135 631 160 656 q 186 682 222 697 q 260 712 307 714 l 312 798 q 312 805 316 810 q 320 814 326 814 l 344 814 l 339 714 q 390 710 428 691 q 466 672 497 641 l 486 624 q 481 616 473 616 q 467 616 457 624 q 448 632 432 642 q 416 652 393 661 q 370 670 337 673 l 322 387 q 346 380 370 372 q 394 364 415 354 q 437 344 456 330 q 474 318 488 300 q 502 282 509 259 q 517 236 517 206 q 517 164 502 126 q 488 88 461 59 q 434 30 394 12 q 354 -5 303 -8 l 298 -113 q 297 -120 293 -124 q 290 -128 283 -128 l 265 -128 z m 472 199 q 472 232 460 255 q 447 278 426 294 q 405 310 378 321 q 350 332 320 341 l 305 32 q 345 35 376 49 q 408 62 429 85 q 450 107 461 136 q 472 166 472 199 z m 154 536 q 154 505 164 483 q 176 461 194 445 q 214 430 238 418 q 263 407 291 398 l 305 674 q 267 672 239 660 q 210 648 192 629 q 172 610 163 586 q 154 562 154 536 z"},"?":{"x_min":0,"x_max":370,"ha":370,"o":"m 16 646 q 30 660 47 672 q 64 684 84 694 q 104 704 128 710 q 152 716 180 716 q 216 716 246 705 q 278 694 301 675 q 324 656 338 627 q 352 599 352 564 q 352 526 340 498 q 328 471 310 450 q 292 430 271 414 q 250 398 232 384 q 214 370 201 356 q 188 342 187 326 l 181 244 l 148 244 l 146 329 l 146 332 q 146 352 158 368 q 170 383 188 398 q 206 412 226 427 q 247 442 265 461 q 282 480 294 504 q 306 528 306 562 q 306 589 296 610 q 286 632 268 646 q 250 661 226 669 q 202 676 177 676 q 144 676 120 668 q 96 659 79 648 q 62 638 53 629 q 44 620 40 620 q 32 620 29 626 z m 118 38 q 118 48 121 56 q 124 65 131 71 q 137 78 145 81 q 154 85 164 85 q 173 85 182 81 q 190 78 196 71 q 202 65 206 56 q 210 48 210 38 q 210 28 206 20 q 202 12 196 6 q 190 0 182 -4 q 173 -8 164 -8 q 144 -8 131 6 q 118 19 118 38 z"},"<":{"x_min":0,"x_max":580,"ha":580,"o":"m 80 346 l 455 538 l 455 506 q 455 500 452 496 q 449 492 442 488 l 165 348 q 148 340 129 336 q 150 331 165 323 l 442 182 q 449 178 452 174 q 455 170 455 165 l 455 132 l 80 326 z"},"'":{"x_min":0,"x_max":222,"ha":222,"o":"m 132 708 l 132 562 l 127 485 q 126 476 122 472 q 119 467 110 467 q 104 467 100 472 q 96 476 94 485 l 90 562 l 90 708 z"},"=":{"x_min":0,"x_max":580,"ha":580,"o":"m 83 278 l 496 278 l 496 241 l 83 241 z m 83 434 l 496 434 l 496 398 l 83 398 z"},"a":{"x_min":0,"x_max":486,"ha":486,"o":"m 398 0 q 384 0 380 14 l 373 78 q 352 58 332 42 q 312 26 290 14 q 268 4 242 -2 q 217 -8 186 -8 q 161 -8 137 0 q 113 7 94 22 q 76 38 65 62 q 54 86 54 120 q 54 152 72 179 q 90 206 128 226 q 166 246 226 258 q 286 270 371 272 l 371 324 q 371 393 341 430 q 312 468 253 468 q 217 468 192 458 q 166 448 149 436 q 132 424 120 414 q 110 404 102 404 q 92 404 87 412 l 78 427 q 118 466 160 486 q 204 506 258 506 q 298 506 328 493 q 358 480 378 457 q 398 433 408 399 q 418 366 418 324 l 418 0 z m 198 26 q 228 26 252 33 q 276 39 297 50 q 318 62 336 77 q 354 92 371 110 l 371 240 q 300 238 249 229 q 198 220 164 206 q 131 190 115 170 q 100 149 100 122 q 100 98 108 79 q 116 61 130 49 q 143 38 161 32 q 179 26 198 26 z"},"L":{"x_min":0,"x_max":512,"ha":512,"o":"m 156 44 l 492 44 l 492 0 l 105 0 l 105 708 l 156 708 z"},"3":{"x_min":0,"x_max":580,"ha":580,"o":"m 306 716 q 347 716 383 704 q 419 693 446 670 q 474 648 489 614 q 505 581 505 537 q 505 502 494 475 q 484 447 465 426 q 446 405 420 391 q 395 376 365 369 q 443 354 483 309 q 523 263 523 194 q 523 151 506 114 q 488 76 458 50 q 427 22 386 7 q 344 -8 296 -8 q 235 -8 195 8 q 154 24 128 50 q 102 76 88 109 q 74 141 64 173 l 84 181 q 90 184 95 184 q 100 184 106 181 q 110 178 113 172 l 116 162 q 120 152 125 139 q 130 126 139 112 q 148 98 161 83 q 174 69 193 58 q 212 46 237 40 q 262 32 295 32 q 340 32 374 48 q 408 62 430 86 q 453 109 464 138 q 476 166 476 194 q 476 226 465 254 q 455 282 431 302 q 407 322 368 334 q 328 346 271 346 l 271 380 q 317 382 352 393 q 387 404 410 424 q 434 443 446 470 q 458 497 458 530 q 458 567 446 594 q 433 622 412 640 q 391 658 363 666 q 335 675 304 675 q 271 675 243 665 q 215 655 194 637 q 172 619 158 594 q 143 568 136 538 q 132 520 118 520 q 114 520 112 520 l 88 524 q 94 570 112 606 q 131 641 160 666 q 188 690 226 703 q 263 716 306 716 z"},";":{"x_min":0,"x_max":238,"ha":238,"o":"m 72 437 q 72 446 76 455 q 80 464 86 470 q 92 476 100 480 q 108 484 118 484 q 128 484 136 480 q 145 476 151 470 q 158 464 161 455 q 165 446 165 437 q 165 427 161 419 q 158 410 151 404 q 145 398 136 394 q 128 391 118 391 q 99 391 86 404 q 72 418 72 437 z m 75 42 q 75 60 87 72 q 99 85 118 85 q 140 85 152 70 q 164 56 164 32 q 164 11 158 -10 q 153 -32 143 -52 q 133 -72 119 -92 q 105 -110 88 -126 l 80 -119 q 76 -115 76 -110 q 76 -108 78 -106 q 80 -103 82 -101 q 86 -96 94 -86 q 102 -76 110 -63 q 118 -50 124 -34 q 130 -18 132 0 q 129 -1 125 -2 q 122 -2 117 -2 q 98 -2 87 10 q 75 23 75 42 z"},"J":{"x_min":0,"x_max":454,"ha":454,"o":"m 349 236 q 349 176 334 131 q 320 86 292 54 q 265 24 226 8 q 186 -8 138 -8 q 115 -8 92 -4 q 69 -1 44 6 q 46 14 46 20 q 47 28 48 34 q 48 39 51 42 q 54 46 61 46 q 66 46 72 44 q 78 42 87 40 q 96 38 107 37 q 118 35 133 35 q 171 35 202 47 q 232 59 254 84 q 275 108 286 146 q 298 184 298 235 l 298 708 l 349 708 z"},"V":{"x_min":0,"x_max":644,"ha":644,"o":"m 8 708 l 48 708 q 55 708 60 704 q 64 700 66 694 l 308 107 q 317 84 323 58 q 328 85 338 107 l 578 694 q 580 700 585 704 q 590 708 597 708 l 637 708 l 345 0 l 300 0 z"},"\"":{"x_min":0,"x_max":367,"ha":367,"o":"m 132 708 l 132 562 l 127 485 q 126 476 122 472 q 119 467 110 467 q 104 467 100 472 q 96 476 94 485 l 90 562 l 90 708 z m 276 708 l 276 562 l 272 485 q 271 476 268 472 q 264 467 256 467 q 248 467 244 472 q 240 476 240 485 l 235 562 l 235 708 z"},"7":{"x_min":0,"x_max":580,"ha":580,"o":"m 536 708 l 536 686 q 536 678 534 671 q 532 665 530 660 l 205 18 q 201 10 194 5 q 188 0 176 0 l 144 0 l 470 640 q 477 653 486 664 l 78 664 q 72 664 69 668 q 65 672 65 677 l 65 708 z"},"S":{"x_min":0,"x_max":522,"ha":522,"o":"m 447 622 q 442 613 434 613 q 428 613 417 622 q 407 632 390 643 q 372 654 346 664 q 320 673 281 673 q 242 673 213 662 q 184 651 164 632 q 144 613 134 588 q 124 563 124 536 q 124 500 139 476 q 154 452 180 436 q 204 420 236 408 q 268 397 302 386 q 335 375 367 362 q 398 348 424 328 q 448 308 464 279 q 479 250 479 206 q 479 162 464 123 q 448 84 420 54 q 390 26 348 9 q 306 -8 252 -8 q 182 -8 132 17 q 82 42 44 84 l 58 106 q 64 114 72 114 q 76 114 83 108 q 90 102 100 93 q 110 84 124 74 q 138 64 156 55 q 175 46 199 40 q 223 34 254 34 q 296 34 328 47 q 362 60 384 82 q 407 104 419 134 q 431 164 431 199 q 431 236 416 261 q 400 285 376 301 q 350 318 319 328 q 287 340 254 350 q 220 360 188 374 q 156 386 132 407 q 106 427 91 457 q 76 488 76 533 q 76 568 90 602 q 103 634 129 660 q 155 685 193 700 q 232 716 280 716 q 336 716 379 698 q 423 680 459 644 z"},"}":{"x_min":0,"x_max":300,"ha":300,"o":"m 190 222 q 190 195 195 169 q 200 143 206 117 q 211 91 216 65 q 220 38 220 10 q 220 -20 211 -46 q 202 -72 184 -91 q 166 -110 139 -121 q 113 -132 80 -132 l 52 -132 l 52 -111 q 52 -106 56 -102 q 60 -100 65 -100 l 82 -100 q 103 -100 121 -92 q 138 -84 151 -70 q 164 -56 171 -36 q 178 -16 178 8 q 178 36 174 63 q 170 90 164 116 q 158 143 154 169 q 150 196 150 222 q 150 240 156 256 q 162 271 172 283 q 182 294 195 302 q 208 310 223 313 q 208 316 195 324 q 182 332 172 344 q 162 355 156 370 q 150 386 150 404 q 150 431 154 457 q 158 484 164 510 q 170 536 174 563 q 178 590 178 618 q 178 643 171 663 q 164 683 151 697 q 138 711 121 718 q 103 726 82 726 l 65 726 q 60 726 56 729 q 52 732 52 738 l 52 758 l 80 758 q 113 758 139 748 q 166 737 184 718 q 202 698 211 672 q 220 646 220 616 q 220 588 216 562 q 211 536 206 510 q 200 484 195 458 q 190 432 190 404 q 190 388 196 374 q 202 360 212 350 q 222 340 236 334 q 250 328 268 328 l 268 298 q 250 298 236 292 q 222 287 212 277 q 202 266 196 253 q 190 239 190 222 z"},"Z":{"x_min":0,"x_max":633,"ha":633,"o":"m 582 708 l 582 690 q 582 680 574 670 l 126 42 l 578 42 l 578 0 l 58 0 l 58 18 q 58 28 64 36 l 514 665 l 70 665 l 70 708 z"},"x":{"x_min":0,"x_max":460,"ha":460,"o":"m 198 254 l 24 498 l 70 498 q 77 498 80 494 q 84 492 86 488 l 232 276 q 234 285 240 294 l 377 487 q 380 492 383 494 q 387 498 392 498 l 436 498 l 262 257 l 443 0 l 398 0 q 390 0 386 4 q 382 8 380 12 l 229 232 q 226 222 222 216 l 76 12 q 73 7 69 4 q 66 0 60 0 l 18 0 z"},")":{"x_min":0,"x_max":300,"ha":300,"o":"m 173 315 q 173 428 143 530 q 112 633 53 729 q 50 734 50 740 q 50 746 56 750 l 77 763 q 115 704 142 649 q 168 594 184 539 q 200 484 207 429 q 214 374 214 315 q 214 256 207 202 q 200 146 184 92 q 168 37 142 -18 q 115 -74 77 -132 l 56 -120 q 49 -116 49 -108 q 49 -104 52 -98 q 112 -2 143 100 q 173 203 173 315 z"},"&":{"x_min":0,"x_max":692,"ha":692,"o":"m 330 716 q 363 716 393 704 q 423 692 445 673 q 468 654 481 628 q 494 602 495 574 q 488 572 482 571 q 471 568 464 568 q 460 568 457 572 q 454 574 452 580 q 448 593 440 610 q 432 627 417 642 q 402 657 381 668 q 359 678 330 678 q 300 678 275 669 q 250 660 233 643 q 216 626 206 603 q 196 580 196 552 q 196 512 217 474 q 238 436 282 394 l 505 174 q 528 210 541 248 q 554 288 558 324 q 559 330 562 334 q 565 338 571 338 l 598 338 q 598 291 581 241 q 564 192 533 146 l 682 0 l 638 0 q 628 0 623 2 q 617 4 610 11 l 507 112 q 484 86 458 64 q 430 42 399 26 q 368 10 332 1 q 296 -8 256 -8 q 219 -8 182 4 q 146 17 117 41 q 88 66 71 101 q 53 136 53 181 q 53 217 66 250 q 79 282 102 310 q 124 337 155 358 q 186 380 222 394 q 186 434 169 471 q 151 509 151 552 q 151 587 164 617 q 176 646 200 668 q 224 690 256 703 q 289 716 330 716 z m 102 184 q 102 146 116 117 q 131 88 154 69 q 178 50 207 40 q 236 31 264 31 q 298 31 330 39 q 361 47 388 61 q 416 76 438 95 q 461 114 480 138 l 250 364 q 248 366 245 369 q 212 355 185 336 q 158 316 140 292 q 122 268 112 241 q 102 214 102 184 z"},"_":{"x_min":0,"x_max":394,"ha":394,"o":"m 394 -102 l 394 -136 l 0 -136 l 0 -102 z"},"v":{"x_min":0,"x_max":487,"ha":487,"o":"m 264 0 l 222 0 l 12 498 l 50 498 q 57 498 61 494 q 66 490 68 486 l 232 93 q 236 82 239 71 q 242 60 244 50 q 246 60 249 71 q 252 82 256 93 l 422 486 q 424 491 428 494 q 432 498 438 498 l 474 498 z"},"O":{"x_min":0,"x_max":798,"ha":798,"o":"m 736 354 q 736 272 712 205 q 687 138 642 91 q 598 44 536 18 q 474 -8 398 -8 q 324 -8 262 18 q 200 44 156 91 q 111 138 86 205 q 62 272 62 354 q 62 436 86 502 q 111 569 156 616 q 200 664 262 690 q 324 716 398 716 q 474 716 536 690 q 598 664 642 616 q 687 569 712 502 q 736 436 736 354 z m 683 354 q 683 428 662 487 q 642 546 605 587 q 568 628 515 650 q 462 672 398 672 q 336 672 283 650 q 231 628 193 587 q 156 546 135 487 q 114 428 114 354 q 114 280 135 221 q 156 162 193 121 q 231 80 283 58 q 336 37 398 37 q 462 37 515 58 q 568 80 605 121 q 642 162 662 221 q 683 280 683 354 z"},"(":{"x_min":0,"x_max":300,"ha":300,"o":"m 126 315 q 126 203 157 100 q 187 -2 247 -98 q 250 -104 250 -108 q 250 -116 244 -120 l 222 -132 q 184 -74 158 -18 q 132 37 116 92 q 100 146 92 202 q 85 256 85 315 q 85 374 92 429 q 100 484 116 539 q 132 594 158 649 q 184 704 222 763 l 244 750 q 250 746 250 740 q 250 734 246 729 q 187 633 157 530 q 126 428 126 315 z"},"C":{"x_min":0,"x_max":704,"ha":704,"o":"m 619 119 q 624 119 628 116 l 648 94 q 626 70 600 52 q 574 33 543 20 q 512 6 475 -1 q 438 -8 394 -8 q 321 -8 260 18 q 198 44 155 91 q 111 138 86 205 q 62 272 62 354 q 62 434 87 501 q 112 568 158 615 q 204 663 268 689 q 332 716 408 716 q 447 716 479 710 q 511 704 539 693 q 566 682 591 666 q 616 650 639 630 l 624 607 q 620 601 611 601 q 606 601 600 606 q 592 612 582 619 q 571 627 556 636 q 540 646 520 653 q 498 661 471 666 q 444 672 408 672 q 344 672 290 649 q 236 627 197 586 q 158 544 136 486 q 114 427 114 354 q 114 279 136 220 q 158 161 196 120 q 234 80 285 58 q 337 36 398 36 q 436 36 465 41 q 495 46 520 56 q 545 66 566 80 q 588 95 609 114 q 612 116 614 118 q 616 119 619 119 z"},"W":{"x_min":0,"x_max":987,"ha":987,"o":"m 8 708 l 51 708 q 66 708 70 694 l 248 112 q 251 102 253 91 q 256 80 258 67 q 260 80 263 91 q 266 102 269 112 l 469 694 q 471 700 476 704 q 481 708 488 708 l 502 708 q 509 708 514 704 q 518 700 520 694 l 720 112 q 724 102 727 92 q 730 80 732 68 q 734 80 736 91 q 738 102 742 112 l 920 694 q 922 700 927 704 q 932 708 939 708 l 978 708 l 756 0 l 710 0 l 500 614 q 496 626 494 640 q 490 626 486 614 l 277 0 l 232 0 z"},"A":{"x_min":0,"x_max":644,"ha":644,"o":"m 638 0 l 598 0 q 591 0 586 4 q 582 8 580 14 l 496 219 l 148 219 l 66 14 q 64 8 58 4 q 54 0 46 0 l 8 0 l 297 708 l 348 708 z m 164 257 l 481 257 l 336 614 q 333 623 330 634 q 326 644 322 656 q 319 644 316 634 q 312 623 308 614 z"},"f":{"x_min":0,"x_max":322,"ha":322,"o":"m 100 0 l 100 446 l 30 450 q 15 451 15 462 l 15 482 l 100 482 l 100 545 q 100 588 110 620 q 122 652 142 674 q 162 695 190 706 q 218 716 252 716 q 268 716 283 714 q 299 711 311 706 l 310 683 q 309 676 300 676 q 294 676 284 678 q 274 679 258 679 q 234 679 213 672 q 192 664 178 648 q 162 632 154 607 q 146 581 146 544 l 146 482 l 308 482 l 308 446 l 147 446 l 147 0 z"},"Q":{"x_min":0,"x_max":798,"ha":798,"o":"m 736 354 q 736 300 725 253 q 714 206 694 166 q 674 126 646 95 q 617 64 581 41 l 765 -156 l 722 -156 q 712 -156 704 -153 q 696 -150 690 -144 l 539 20 q 508 6 472 0 q 438 -8 398 -8 q 324 -8 262 18 q 200 44 156 91 q 111 138 86 205 q 62 272 62 354 q 62 436 86 502 q 111 569 156 616 q 200 664 262 690 q 324 716 398 716 q 474 716 536 690 q 598 664 642 616 q 687 569 712 502 q 736 436 736 354 z m 683 354 q 683 428 662 487 q 642 546 605 587 q 568 628 515 650 q 462 672 398 672 q 336 672 283 650 q 231 628 193 587 q 156 546 135 487 q 114 428 114 354 q 114 280 135 221 q 156 162 193 121 q 231 80 283 58 q 336 37 398 37 q 462 37 515 58 q 568 80 605 121 q 642 162 662 221 q 683 280 683 354 z"},"w":{"x_min":0,"x_max":737,"ha":737,"o":"m 11 498 l 48 498 q 54 498 59 494 q 64 490 65 486 l 190 93 q 194 82 196 71 q 198 60 200 50 q 202 60 206 71 q 208 82 212 93 l 346 489 q 350 500 360 500 l 380 500 q 390 500 394 489 l 526 93 q 533 70 538 50 q 540 60 542 71 q 544 82 548 93 l 674 486 q 678 498 691 498 l 726 498 l 560 0 l 524 0 q 516 0 513 10 l 376 414 q 374 422 372 430 q 370 437 368 444 q 367 437 365 430 q 364 422 361 414 l 223 10 q 220 0 211 0 l 178 0 z"},"-":{"x_min":0,"x_max":332,"ha":332,"o":"m 50 317 l 282 317 l 282 276 l 50 276 z"},"E":{"x_min":0,"x_max":591,"ha":591,"o":"m 529 708 l 529 665 l 156 665 l 156 379 l 466 379 l 466 338 l 156 338 l 156 42 l 529 42 l 529 0 l 105 0 l 105 708 z"},"s":{"x_min":0,"x_max":430,"ha":430,"o":"m 355 436 q 352 429 344 429 q 338 429 330 435 q 321 442 307 449 q 292 457 272 463 q 251 470 221 470 q 194 470 172 462 q 150 454 134 441 q 118 428 109 411 q 100 394 100 374 q 100 351 112 336 q 124 320 144 309 q 164 298 188 290 q 213 282 239 274 q 265 266 290 256 q 314 246 334 232 q 354 218 366 196 q 378 176 378 146 q 378 113 366 85 q 354 57 332 36 q 310 16 277 4 q 244 -8 203 -8 q 150 -8 112 9 q 74 26 44 52 l 56 70 q 58 74 62 76 q 64 78 70 78 q 76 78 86 70 q 96 62 111 52 q 126 43 149 35 q 172 27 205 27 q 236 27 260 36 q 284 44 300 60 q 316 74 325 95 q 333 115 333 138 q 333 162 321 179 q 309 196 290 207 q 270 218 245 226 q 220 234 194 242 q 168 250 143 260 q 118 270 99 284 q 80 298 68 319 q 56 340 56 371 q 56 398 67 422 q 78 446 100 465 q 121 484 152 494 q 182 506 220 506 q 266 506 301 492 q 336 480 366 452 z"},">":{"x_min":0,"x_max":580,"ha":580,"o":"m 126 132 l 126 165 q 126 170 128 175 q 132 179 138 182 l 416 323 q 431 331 451 336 q 441 338 432 341 q 424 344 416 348 l 138 488 q 126 496 126 506 l 126 538 l 500 346 l 500 326 z"},"l":{"x_min":0,"x_max":238,"ha":238,"o":"m 142 728 l 142 0 l 95 0 l 95 728 z"},"8":{"x_min":0,"x_max":580,"ha":580,"o":"m 290 -8 q 239 -8 197 6 q 154 19 124 44 q 94 70 77 106 q 60 142 60 187 q 60 226 71 256 q 82 287 103 310 q 124 332 152 347 q 180 362 214 370 q 183 378 159 394 q 135 410 119 431 q 102 452 94 479 q 86 505 86 535 q 86 572 100 606 q 114 638 140 663 q 167 688 205 702 q 242 716 290 716 q 337 716 375 702 q 412 688 439 663 q 466 638 480 606 q 494 572 494 535 q 494 505 486 479 q 478 452 461 431 q 444 410 420 394 q 396 378 366 370 q 400 362 428 347 q 456 332 476 310 q 497 287 508 256 q 520 226 520 187 q 520 142 503 106 q 486 70 456 44 q 426 19 383 6 q 341 -8 290 -8 z m 290 30 q 330 30 364 41 q 397 52 421 73 q 445 94 458 123 q 471 152 471 188 q 471 234 454 265 q 437 296 410 314 q 384 333 352 341 q 320 348 290 348 q 260 348 228 341 q 196 333 170 314 q 143 296 126 265 q 109 234 109 188 q 109 152 122 123 q 135 94 159 73 q 182 52 216 41 q 250 30 290 30 z m 290 387 q 330 387 360 399 q 390 412 410 432 q 429 453 438 480 q 448 506 448 534 q 448 565 437 591 q 426 618 406 637 q 386 656 357 668 q 328 678 290 678 q 252 678 223 668 q 194 656 173 637 q 153 618 142 591 q 132 565 132 534 q 132 506 141 480 q 150 453 170 432 q 190 412 219 399 q 249 387 290 387 z"},"\\":{"x_min":0,"x_max":358,"ha":358,"o":"m -4 728 l 16 728 q 36 728 44 709 l 354 -42 l 335 -42 q 326 -42 318 -37 q 310 -32 306 -22 z"},"e":{"x_min":0,"x_max":511,"ha":511,"o":"m 268 506 q 310 506 346 491 q 382 476 408 449 q 434 421 449 380 q 464 340 464 288 q 464 276 461 272 q 458 268 450 268 l 91 268 l 91 259 q 91 203 104 160 q 117 118 141 89 q 165 60 199 46 q 233 32 275 32 q 312 32 340 40 q 368 48 386 58 q 405 68 416 77 q 427 85 432 85 q 438 85 442 80 l 455 64 q 443 49 423 36 q 404 23 379 14 q 355 4 327 -1 q 300 -6 272 -6 q 220 -6 178 11 q 136 29 106 63 q 76 97 60 146 q 44 196 44 259 q 44 312 59 358 q 74 403 103 436 q 132 468 174 487 q 216 506 268 506 z m 269 470 q 230 470 200 458 q 170 446 147 424 q 125 401 111 370 q 98 338 93 299 l 421 299 q 421 339 410 371 q 399 402 379 424 q 359 446 331 458 q 303 470 269 470 z"},"b":{"x_min":0,"x_max":546,"ha":546,"o":"m 86 0 l 86 728 l 134 728 l 134 410 q 167 454 210 480 q 254 506 308 506 q 400 506 451 442 q 502 379 502 252 q 502 198 488 150 q 474 103 446 68 q 418 34 378 14 q 338 -6 286 -6 q 234 -6 196 14 q 158 34 132 74 l 128 12 q 127 0 115 0 z m 295 468 q 246 468 206 442 q 166 416 134 371 l 134 108 q 162 66 197 48 q 232 31 276 31 q 320 31 354 47 q 386 63 409 92 q 431 122 442 162 q 454 203 454 252 q 454 363 412 415 q 372 468 295 468 z"},"%":{"x_min":0,"x_max":767,"ha":767,"o":"m 341 538 q 341 494 329 461 q 317 428 296 406 q 276 384 249 372 q 222 361 192 361 q 161 361 134 372 q 106 384 86 406 q 66 428 55 461 q 44 494 44 538 q 44 582 55 615 q 66 648 86 671 q 106 693 134 704 q 161 716 192 716 q 223 716 250 704 q 277 693 297 671 q 318 648 329 615 q 341 582 341 538 z m 303 538 q 303 576 294 604 q 286 631 270 649 q 255 666 235 675 q 214 683 192 683 q 170 683 150 675 q 130 666 114 649 q 100 631 91 604 q 82 576 82 538 q 82 499 91 472 q 100 444 114 427 q 130 410 150 401 q 170 393 192 393 q 214 393 235 401 q 255 410 270 427 q 286 444 294 472 q 303 499 303 538 z m 610 698 q 612 702 617 705 q 621 708 628 708 l 662 708 l 154 9 q 147 0 136 0 l 102 0 z m 723 168 q 723 124 711 91 q 699 58 679 36 q 658 14 632 3 q 604 -8 574 -8 q 544 -8 516 3 q 489 14 469 36 q 449 58 438 91 q 426 124 426 168 q 426 212 438 246 q 449 279 469 301 q 489 324 516 335 q 544 346 574 346 q 606 346 632 335 q 660 324 680 301 q 700 279 712 246 q 723 212 723 168 z m 685 168 q 685 206 676 234 q 668 262 652 280 q 638 298 617 306 q 597 314 574 314 q 552 314 532 306 q 512 298 496 280 q 482 262 473 234 q 464 206 464 168 q 464 130 473 102 q 482 75 496 58 q 512 40 532 32 q 552 24 574 24 q 597 24 617 32 q 638 40 652 58 q 668 75 676 102 q 685 130 685 168 z"},"m":{"x_min":0,"x_max":796,"ha":796,"o":"m 81 0 l 81 498 l 107 498 q 120 498 122 485 l 126 413 q 141 434 158 450 q 174 468 193 480 q 212 492 233 499 q 254 506 278 506 q 332 506 364 474 q 397 442 408 386 q 418 416 434 439 q 450 462 471 476 q 492 491 517 498 q 542 506 568 506 q 604 506 634 493 q 664 481 684 457 q 705 433 716 398 q 727 363 727 318 l 727 0 l 679 0 l 679 318 q 679 391 648 429 q 616 468 558 468 q 532 468 508 458 q 484 448 466 430 q 448 411 437 383 q 426 355 426 318 l 426 0 l 378 0 l 378 318 q 378 390 350 429 q 320 468 265 468 q 224 468 190 443 q 156 419 128 376 l 128 0 z"},"#":{"x_min":0,"x_max":580,"ha":580,"o":"m 378 222 l 332 0 l 311 0 q 304 0 300 4 q 295 8 295 16 q 295 20 296 22 l 338 222 l 190 222 l 146 20 q 144 9 138 4 q 132 0 124 0 l 102 0 l 150 222 l 58 222 q 51 222 47 225 q 43 228 43 236 q 43 239 43 241 q 43 244 44 248 l 46 256 l 154 256 l 196 451 l 69 451 l 72 470 q 74 486 94 486 l 200 486 l 244 688 q 246 698 252 703 q 258 708 267 708 l 288 708 l 240 486 l 390 486 l 437 708 l 458 708 q 474 708 474 692 q 474 688 473 686 l 430 486 l 542 486 l 539 468 q 536 451 516 451 l 424 451 l 384 256 l 496 256 q 511 256 511 244 l 509 222 z m 194 256 l 344 256 l 384 451 l 236 451 z"},",":{"x_min":0,"x_max":198,"ha":198,"o":"m 55 42 q 55 60 67 72 q 79 85 98 85 q 120 85 132 70 q 144 56 144 32 q 144 11 138 -10 q 133 -32 123 -52 q 113 -72 99 -92 q 85 -110 68 -126 l 60 -119 q 56 -115 56 -110 q 56 -108 58 -106 q 60 -103 62 -101 q 66 -96 74 -86 q 82 -76 90 -63 q 98 -50 104 -34 q 110 -18 112 0 q 109 -1 105 -2 q 102 -2 97 -2 q 78 -2 67 10 q 55 23 55 42 z"},"n":{"x_min":0,"x_max":541,"ha":541,"o":"m 81 0 l 81 498 l 107 498 q 120 498 122 485 l 126 410 q 160 453 206 479 q 251 506 306 506 q 348 506 379 492 q 410 480 430 455 q 451 430 462 396 q 472 362 472 318 l 472 0 l 424 0 l 424 318 q 424 388 392 428 q 360 468 294 468 q 246 468 204 442 q 162 417 128 373 l 128 0 z"},"h":{"x_min":0,"x_max":541,"ha":541,"o":"m 81 0 l 81 728 l 128 728 l 128 412 q 163 455 207 480 q 252 506 306 506 q 348 506 379 492 q 410 480 430 455 q 451 430 462 396 q 472 362 472 318 l 472 0 l 424 0 l 424 318 q 424 388 392 428 q 360 468 294 468 q 246 468 204 442 q 162 417 128 373 l 128 0 z"},"z":{"x_min":0,"x_max":452,"ha":452,"o":"m 413 478 q 413 467 406 458 l 94 38 l 400 38 l 400 0 l 37 0 l 37 19 q 37 28 44 38 l 357 460 l 54 460 l 54 498 l 413 498 z"},"B":{"x_min":0,"x_max":641,"ha":641,"o":"m 105 0 l 105 708 l 308 708 q 369 708 413 696 q 458 684 486 660 q 516 637 530 604 q 544 570 544 528 q 544 500 534 474 q 524 448 506 426 q 488 404 461 387 q 434 371 400 362 q 483 350 528 307 q 573 264 573 194 q 573 148 557 112 q 541 76 510 52 q 480 26 436 13 q 391 0 334 0 z m 156 339 l 156 41 l 334 41 q 427 41 474 81 q 522 122 522 194 q 522 228 509 255 q 496 282 472 300 q 448 319 414 329 q 378 339 334 339 z m 156 376 l 310 376 q 358 376 393 389 q 428 402 450 422 q 472 442 483 468 q 494 494 494 522 q 494 594 448 630 q 403 667 308 667 l 156 667 z"},"K":{"x_min":0,"x_max":660,"ha":660,"o":"m 171 381 l 213 381 q 222 381 230 382 q 236 382 242 385 q 248 387 253 390 q 258 394 264 400 l 549 693 q 557 701 564 704 q 570 708 580 708 l 622 708 l 313 390 q 304 380 296 374 q 289 369 280 366 q 290 362 299 356 q 307 350 316 340 l 642 0 l 600 0 q 587 0 582 4 q 576 8 570 14 l 270 320 q 265 325 260 329 q 256 333 250 336 q 244 338 236 340 q 228 341 216 341 l 171 341 l 171 0 l 120 0 l 120 708 l 171 708 z"},"R":{"x_min":0,"x_max":631,"ha":631,"o":"m 171 320 l 171 0 l 120 0 l 120 708 l 300 708 q 423 708 484 660 q 544 613 544 522 q 544 481 530 448 q 516 414 490 389 q 464 364 426 347 q 390 331 343 326 q 355 318 364 306 l 608 0 l 564 0 q 556 0 550 3 q 544 6 538 13 l 312 300 q 304 311 294 316 q 284 320 264 320 z m 171 358 l 294 358 q 341 358 378 369 q 416 380 441 402 q 467 422 480 452 q 494 482 494 518 q 494 594 444 630 q 395 667 300 667 l 171 667 z"},"T":{"x_min":0,"x_max":584,"ha":584,"o":"m 567 708 l 567 664 l 318 664 l 318 0 l 268 0 l 268 664 l 18 664 l 18 708 z"},"P":{"x_min":0,"x_max":594,"ha":594,"o":"m 171 285 l 171 0 l 120 0 l 120 708 l 302 708 q 427 708 490 653 q 554 598 554 498 q 554 451 536 412 q 519 373 486 345 q 454 316 408 301 q 361 285 302 285 z m 171 326 l 302 326 q 350 326 386 339 q 424 352 449 375 q 475 398 489 429 q 502 460 502 498 q 502 579 452 623 q 402 667 302 667 l 171 667 z"},"|":{"x_min":0,"x_max":300,"ha":300,"o":"m 131 758 l 168 758 l 168 -176 l 131 -176 z"},"t":{"x_min":0,"x_max":356,"ha":356,"o":"m 217 -8 q 166 -8 138 20 q 110 48 110 106 l 110 446 l 38 446 q 33 446 30 450 q 26 452 26 458 l 26 476 l 111 482 l 123 660 q 124 665 127 668 q 130 672 136 672 l 158 672 l 158 482 l 314 482 l 314 446 l 158 446 l 158 109 q 158 88 163 74 q 168 59 178 50 q 187 40 200 36 q 212 31 226 31 q 244 31 258 36 q 270 42 280 48 q 290 54 296 59 q 302 64 305 64 q 309 64 313 60 l 326 38 q 307 18 278 5 q 248 -8 217 -8 z"},"M":{"x_min":0,"x_max":909,"ha":909,"o":"m 445 206 q 452 192 458 176 q 461 184 464 192 q 468 200 472 206 l 750 698 q 754 704 758 706 q 762 708 768 708 l 804 708 l 804 0 l 759 0 l 759 603 q 759 616 760 630 l 482 136 q 475 123 462 123 l 454 123 q 442 123 434 136 l 148 631 q 150 616 150 603 l 150 0 l 105 0 l 105 708 l 140 708 q 147 708 151 706 q 156 704 160 698 l 445 206 z"},"g":{"x_min":0,"x_max":504,"ha":504,"o":"m 245 506 q 278 506 305 498 q 333 490 355 476 l 482 476 l 482 459 q 482 446 468 446 l 393 440 q 407 421 414 397 q 422 374 422 346 q 422 310 409 281 q 396 252 373 231 q 350 210 317 199 q 284 188 245 188 q 202 188 167 200 q 146 188 134 172 q 122 156 122 140 q 122 118 137 107 q 152 96 177 90 q 202 85 233 84 q 265 82 298 80 q 330 78 362 74 q 394 70 419 58 q 444 47 458 27 q 474 6 474 -27 q 474 -58 458 -86 q 442 -115 413 -137 q 384 -159 342 -172 q 301 -186 250 -186 q 197 -186 158 -175 q 118 -164 91 -146 q 64 -128 51 -104 q 38 -80 38 -52 q 38 -13 64 16 q 90 44 135 60 q 110 68 95 84 q 80 100 80 128 q 80 139 84 150 q 88 162 96 173 q 104 184 116 194 q 127 204 142 212 q 106 233 87 267 q 67 301 67 346 q 67 382 80 412 q 92 441 116 462 q 139 483 172 494 q 205 506 245 506 z m 430 -34 q 430 -10 417 4 q 405 18 384 26 q 364 34 337 38 q 310 41 281 42 q 252 44 222 46 q 193 47 168 52 q 148 44 132 34 q 116 24 104 12 q 93 0 86 -15 q 80 -30 80 -47 q 80 -69 91 -88 q 102 -106 124 -120 q 146 -134 178 -142 q 209 -150 250 -150 q 288 -150 321 -142 q 354 -133 378 -118 q 402 -102 416 -80 q 430 -59 430 -34 z m 245 220 q 277 220 302 229 q 327 238 344 255 q 361 272 370 294 q 378 318 378 346 q 378 374 370 397 q 360 420 343 436 q 326 453 301 462 q 276 471 245 471 q 214 471 188 462 q 164 453 146 436 q 129 420 120 397 q 111 374 111 346 q 111 318 120 294 q 129 272 146 255 q 164 238 188 229 q 214 220 245 220 z"},"j":{"x_min":0,"x_max":236,"ha":236,"o":"m 142 498 l 142 -64 q 142 -90 135 -112 q 128 -134 113 -150 q 98 -166 76 -175 q 54 -184 24 -184 q 9 -184 -2 -182 q -14 -180 -25 -174 l -22 -150 q -22 -144 -16 -144 q -12 -144 -4 -146 q 3 -148 16 -148 q 56 -148 76 -126 q 95 -104 95 -64 l 95 498 z m 164 669 q 164 660 160 652 q 156 644 150 638 q 144 632 136 629 q 128 626 119 626 q 110 626 102 629 q 94 632 88 638 q 82 644 78 652 q 75 660 75 669 q 75 678 78 686 q 82 694 88 700 q 94 706 102 710 q 110 714 119 714 q 128 714 136 710 q 144 706 150 700 q 156 694 160 686 q 164 678 164 669 z"},"i":{"x_min":0,"x_max":238,"ha":238,"o":"m 142 498 l 142 0 l 95 0 l 95 498 z m 164 669 q 164 660 160 652 q 156 644 150 638 q 144 632 136 629 q 128 626 119 626 q 110 626 102 629 q 94 632 88 638 q 82 644 78 652 q 75 660 75 669 q 75 678 78 686 q 82 694 88 700 q 94 706 102 710 q 110 714 119 714 q 128 714 136 710 q 144 706 150 700 q 156 694 160 686 q 164 678 164 669 z"},"y":{"x_min":0,"x_max":487,"ha":487,"o":"m 190 -160 q 186 -167 182 -172 q 177 -176 168 -176 l 134 -176 l 222 18 l 11 498 l 50 498 q 58 498 62 494 q 66 490 68 486 l 236 98 q 239 91 241 83 q 244 76 246 68 q 248 76 251 83 q 254 91 256 98 l 422 486 q 424 491 429 494 q 434 498 439 498 l 476 498 z"},"@":{"x_min":0,"x_max":822,"ha":822,"o":"m 584 94 q 540 94 517 117 q 495 140 494 184 q 466 138 431 117 q 396 96 354 96 q 326 96 306 106 q 286 116 272 132 q 258 150 252 172 q 245 196 245 222 q 245 264 261 307 q 278 350 309 384 q 340 418 386 440 q 431 462 489 462 q 516 462 539 457 q 562 452 580 444 l 535 270 q 529 248 526 229 q 524 211 524 196 q 524 174 529 161 q 534 147 544 139 q 553 131 565 128 q 577 126 590 126 q 618 126 644 140 q 670 156 690 183 q 710 211 722 250 q 734 290 734 339 q 734 413 710 468 q 686 524 644 560 q 602 596 546 614 q 491 632 428 632 q 360 632 299 606 q 238 580 191 532 q 145 484 118 419 q 90 353 90 274 q 90 186 119 119 q 147 52 196 6 q 244 -39 309 -62 q 374 -86 446 -86 q 520 -86 582 -68 q 643 -52 693 -19 q 696 -16 702 -16 q 708 -16 712 -24 l 719 -42 q 663 -79 596 -99 q 528 -119 446 -119 q 364 -119 292 -93 q 221 -66 168 -16 q 115 34 84 107 q 54 180 54 274 q 54 358 84 430 q 113 501 164 554 q 215 606 283 636 q 351 666 428 666 q 496 666 557 645 q 618 624 666 583 q 713 542 741 480 q 770 420 770 339 q 770 284 755 240 q 740 194 715 162 q 690 130 656 112 q 622 94 584 94 z m 364 129 q 382 129 401 135 q 420 141 438 157 q 456 172 471 199 q 486 226 497 268 l 537 422 q 525 426 512 428 q 500 430 482 430 q 438 430 401 411 q 364 393 338 364 q 312 334 298 297 q 284 260 284 223 q 284 203 289 186 q 294 168 304 156 q 314 144 329 136 q 344 129 364 129 z"},".":{"x_min":0,"x_max":198,"ha":198,"o":"m 52 38 q 52 48 56 56 q 60 65 66 71 q 72 78 80 81 q 88 85 98 85 q 108 85 116 81 q 125 78 131 71 q 138 65 141 56 q 145 48 145 38 q 145 28 141 20 q 138 12 131 6 q 125 0 116 -4 q 108 -8 98 -8 q 79 -8 66 6 q 52 19 52 38 z"},"p":{"x_min":0,"x_max":535,"ha":535,"o":"m 81 -176 l 81 498 l 107 498 q 114 498 118 495 q 122 492 122 485 l 126 408 q 160 453 204 480 q 248 506 303 506 q 395 506 446 442 q 497 379 497 252 q 497 198 483 150 q 468 103 441 68 q 414 34 373 14 q 333 -6 280 -6 q 230 -6 192 12 q 156 30 128 67 l 128 -176 z m 290 468 q 240 468 200 442 q 160 416 128 370 l 128 109 q 157 66 192 48 q 226 31 271 31 q 315 31 348 47 q 381 63 403 92 q 426 122 437 162 q 448 203 448 252 q 448 363 407 415 q 366 468 290 468 z"},"X":{"x_min":0,"x_max":600,"ha":600,"o":"m 264 363 l 20 708 l 70 708 q 78 708 81 704 q 84 702 86 698 l 302 388 q 303 392 305 395 q 306 399 309 403 l 516 697 q 520 701 523 704 q 526 708 532 708 l 580 708 l 336 366 l 590 0 l 540 0 q 533 0 529 4 q 525 8 522 12 l 300 338 q 298 331 292 324 l 74 12 q 70 8 66 4 q 61 0 55 0 l 8 0 z"},"*":{"x_min":0,"x_max":400,"ha":400,"o":"m 186 448 l 186 555 q 186 564 187 570 q 188 576 192 585 q 187 578 182 574 q 176 570 169 565 l 75 510 l 62 532 l 156 588 q 164 592 170 594 q 176 596 186 597 q 176 598 170 601 q 164 604 156 608 l 62 662 l 74 685 l 169 630 q 177 625 182 620 q 186 616 194 607 q 190 616 188 624 q 186 631 186 640 l 186 746 l 212 746 l 212 640 q 212 631 211 624 q 210 616 206 608 q 212 616 216 621 q 222 626 230 630 l 324 684 l 336 662 l 242 608 q 235 603 228 600 q 222 598 214 597 q 222 596 229 594 q 235 592 242 588 l 337 532 l 324 510 l 230 565 q 222 570 217 574 q 212 578 206 586 q 208 577 210 570 q 212 564 212 556 l 212 448 z"},"Y":{"x_min":0,"x_max":600,"ha":600,"o":"m 326 292 l 326 0 l 274 0 l 274 292 l 12 708 l 57 708 q 64 708 68 704 q 72 701 76 695 l 279 370 q 286 358 291 348 q 296 337 300 326 q 304 337 309 348 q 314 358 321 370 l 523 695 q 526 700 530 704 q 535 708 542 708 l 587 708 z"},"c":{"x_min":0,"x_max":455,"ha":455,"o":"m 408 431 q 406 428 404 427 q 402 425 398 425 q 392 425 384 432 q 375 438 360 446 q 346 454 324 461 q 302 468 272 468 q 228 468 195 453 q 162 438 139 409 q 116 380 104 340 q 92 300 92 249 q 92 196 105 156 q 117 116 140 88 q 162 60 194 46 q 226 31 265 31 q 301 31 325 40 q 350 48 365 58 q 381 68 390 76 q 400 85 405 85 q 412 85 415 80 l 428 64 q 416 49 399 36 q 382 23 360 14 q 338 4 312 -1 q 286 -6 258 -6 q 210 -6 171 11 q 132 28 104 61 q 76 94 60 141 q 44 188 44 249 q 44 306 59 353 q 74 400 103 434 q 132 468 173 487 q 215 506 269 506 q 318 506 355 490 q 393 474 421 448 z"},"!":{"x_min":0,"x_max":322,"ha":322,"o":"m 186 708 l 186 422 q 186 399 186 379 q 185 359 184 338 q 184 318 182 294 q 180 272 179 244 l 146 244 q 145 272 144 294 q 142 318 141 338 q 140 359 140 379 q 140 399 140 422 l 140 708 z m 115 38 q 115 48 118 56 q 122 65 128 71 q 134 78 143 81 q 151 85 161 85 q 170 85 179 81 q 188 78 194 71 q 200 65 204 56 q 208 48 208 38 q 208 28 204 20 q 200 12 194 6 q 188 0 179 -4 q 170 -8 161 -8 q 142 -8 128 6 q 115 19 115 38 z"},"/":{"x_min":0,"x_max":356,"ha":356,"o":"m 46 -22 q 42 -32 34 -37 q 26 -42 17 -42 l -2 -42 l 308 709 q 316 728 336 728 l 356 728 z"},"[":{"x_min":0,"x_max":300,"ha":300,"o":"m 88 -132 l 88 758 l 246 758 l 246 740 q 246 734 242 730 q 238 726 231 726 l 128 726 l 128 -100 l 231 -100 q 238 -100 242 -104 q 246 -108 246 -114 l 246 -132 z"},"6":{"x_min":0,"x_max":580,"ha":580,"o":"m 314 423 q 360 423 398 408 q 436 393 464 366 q 492 338 508 300 q 524 261 524 213 q 524 165 506 124 q 489 84 458 54 q 428 25 384 8 q 342 -8 290 -8 q 240 -8 200 8 q 158 24 129 54 q 100 84 84 127 q 68 170 68 225 q 68 266 89 319 q 110 371 158 436 l 351 696 q 360 708 376 708 l 418 708 l 208 432 q 192 412 179 394 q 166 376 156 358 q 185 388 226 406 q 266 423 314 423 z m 114 214 q 114 174 127 140 q 139 107 162 83 q 184 58 216 45 q 249 32 290 32 q 332 32 367 45 q 402 58 426 82 q 450 106 463 139 q 476 172 476 210 q 476 250 463 283 q 450 316 427 339 q 404 362 372 374 q 340 386 301 386 q 257 386 222 371 q 188 356 164 331 q 140 307 127 276 q 114 245 114 214 z"},"r":{"x_min":0,"x_max":397,"ha":397,"o":"m 81 0 l 81 498 l 106 498 q 114 498 118 494 q 122 490 122 482 l 126 377 q 150 438 190 472 q 230 506 289 506 q 312 506 330 501 q 350 496 366 488 l 360 454 q 358 446 350 446 q 347 446 342 448 q 336 450 328 453 q 320 456 308 458 q 296 460 280 460 q 224 460 187 424 q 151 390 128 324 l 128 0 z"},"2":{"x_min":0,"x_max":580,"ha":580,"o":"m 301 716 q 342 716 378 704 q 415 692 443 668 q 471 644 488 609 q 504 573 504 525 q 504 485 492 451 q 480 416 458 385 q 438 354 410 324 q 382 294 352 263 l 130 37 q 146 41 163 43 q 180 45 198 45 l 504 45 q 512 45 516 40 q 521 36 521 28 l 521 0 l 64 0 l 64 17 q 64 22 67 28 q 70 34 74 38 l 316 282 q 346 313 371 342 q 396 370 415 399 q 434 428 445 458 q 456 489 456 524 q 456 562 442 591 q 430 620 408 638 q 386 657 358 666 q 330 675 298 675 q 265 675 237 665 q 208 654 187 636 q 165 618 151 593 q 136 568 131 538 q 126 520 111 520 q 110 520 108 520 q 107 520 106 520 l 82 524 q 88 570 107 606 q 126 641 154 666 q 182 690 220 703 q 258 716 301 716 z"},"{":{"x_min":0,"x_max":300,"ha":300,"o":"m 110 222 q 110 239 104 253 q 98 266 88 277 q 78 287 64 292 q 49 298 32 298 l 32 328 q 49 328 64 334 q 78 340 88 350 q 98 360 104 374 q 110 388 110 404 q 110 432 105 458 q 100 484 94 510 q 89 536 84 562 q 80 588 80 616 q 80 646 89 672 q 98 698 116 718 q 134 737 161 748 q 187 758 220 758 l 248 758 l 248 738 q 248 732 243 729 q 239 726 235 726 l 218 726 q 197 726 179 718 q 162 711 149 697 q 136 683 129 663 q 122 643 122 618 q 122 590 126 563 q 130 536 136 510 q 142 484 146 457 q 150 431 150 404 q 150 386 144 370 q 138 355 128 344 q 118 332 104 324 q 91 316 76 313 q 91 310 104 302 q 118 294 128 283 q 138 271 144 256 q 150 240 150 222 q 150 196 146 169 q 142 143 136 116 q 130 90 126 63 q 122 36 122 8 q 122 -16 129 -36 q 136 -56 149 -70 q 162 -84 179 -92 q 197 -100 218 -100 l 235 -100 q 239 -100 243 -102 q 248 -106 248 -111 l 248 -132 l 220 -132 q 187 -132 161 -121 q 134 -110 116 -91 q 98 -72 89 -46 q 80 -20 80 10 q 80 38 84 65 q 89 91 94 117 q 100 143 105 169 q 110 195 110 222 z"},"9":{"x_min":0,"x_max":580,"ha":580,"o":"m 286 301 q 243 301 206 315 q 170 330 143 356 q 116 382 101 420 q 86 457 86 503 q 86 548 103 587 q 120 626 150 654 q 180 683 221 699 q 262 716 311 716 q 358 716 397 700 q 436 684 465 654 q 493 625 509 584 q 524 544 524 494 q 524 466 519 441 q 513 416 502 391 q 490 366 474 340 q 458 314 438 284 l 252 12 q 245 0 228 0 l 185 0 l 394 292 q 409 313 422 332 q 434 350 445 368 q 416 336 375 318 q 334 301 286 301 z m 478 502 q 478 541 466 573 q 454 605 431 628 q 408 650 378 663 q 347 676 310 676 q 272 676 239 664 q 206 651 183 628 q 160 606 146 575 q 134 544 134 506 q 134 467 146 436 q 158 404 179 383 q 201 361 232 350 q 262 338 300 338 q 342 338 376 352 q 409 367 432 390 q 455 414 467 443 q 478 472 478 502 z"}," ":{"x_min":0,"x_max":193,"ha":193,"o":""},"I":{"x_min":0,"x_max":299,"ha":299,"o":"m 175 0 l 124 0 l 124 708 l 175 708 z"},"H":{"x_min":0,"x_max":756,"ha":756,"o":"m 651 0 l 600 0 l 600 339 l 156 339 l 156 0 l 105 0 l 105 708 l 156 708 l 156 378 l 600 378 l 600 708 l 651 708 z"},"4":{"x_min":0,"x_max":580,"ha":580,"o":"m 430 241 l 559 241 l 559 215 q 559 210 556 206 q 552 203 546 203 l 430 203 l 430 0 l 386 0 l 386 203 l 53 203 q 46 203 42 206 q 38 210 36 215 l 32 238 l 387 708 l 430 708 z m 386 612 q 386 620 387 630 q 388 639 389 649 l 84 241 l 386 241 z"},"~":{"x_min":0,"x_max":580,"ha":580,"o":"m 390 284 q 408 284 423 290 q 438 297 449 309 q 460 321 465 338 q 471 354 471 374 l 510 374 q 510 346 502 322 q 494 299 479 282 q 464 264 442 254 q 420 244 392 244 q 366 244 340 254 q 313 264 287 276 q 260 288 236 297 q 212 307 190 307 q 171 307 156 300 q 142 294 131 282 q 120 270 115 253 q 109 236 108 217 l 70 217 q 70 244 78 268 q 86 292 101 309 q 116 326 138 336 q 160 346 188 346 q 214 346 240 337 q 267 327 293 315 q 319 303 344 293 q 368 284 390 284 z"},"D":{"x_min":0,"x_max":760,"ha":760,"o":"m 700 354 q 700 272 676 206 q 652 141 607 95 q 562 49 500 24 q 438 0 363 0 l 105 0 l 105 708 l 363 708 q 438 708 500 683 q 562 658 607 612 q 652 566 676 501 q 700 436 700 354 z m 648 354 q 648 428 627 486 q 606 544 569 584 q 532 624 480 645 q 427 666 363 666 l 156 666 l 156 42 l 363 42 q 427 42 480 62 q 532 84 569 124 q 606 164 627 222 q 648 280 648 354 z"},"^":{"x_min":0,"x_max":580,"ha":580,"o":"m 272 708 l 302 708 l 472 400 l 438 400 q 433 400 429 403 q 424 406 422 412 l 302 630 q 297 638 294 646 q 290 653 288 661 q 285 653 282 645 q 278 638 274 630 l 154 412 q 152 408 148 404 q 144 400 137 400 l 102 400 z"},"0":{"x_min":0,"x_max":580,"ha":580,"o":"m 544 354 q 544 261 524 193 q 504 125 469 80 q 434 36 388 14 q 342 -8 290 -8 q 237 -8 191 14 q 145 36 110 80 q 76 125 56 193 q 36 261 36 354 q 36 447 56 515 q 76 583 110 628 q 145 672 191 694 q 237 716 290 716 q 342 716 388 694 q 434 672 469 628 q 504 583 524 515 q 544 447 544 354 z m 494 354 q 494 440 477 501 q 460 562 433 601 q 405 640 368 658 q 330 676 290 676 q 248 676 212 658 q 174 640 146 601 q 118 562 102 501 q 86 440 86 354 q 86 268 102 207 q 118 146 146 107 q 174 68 212 51 q 248 33 290 33 q 330 33 368 51 q 405 68 433 107 q 460 146 477 207 q 494 268 494 354 z"},"F":{"x_min":0,"x_max":572,"ha":572,"o":"m 529 708 l 529 665 l 156 665 l 156 368 l 479 368 l 479 325 l 156 325 l 156 0 l 105 0 l 105 708 z"},"`":{"x_min":0,"x_max":292,"ha":292,"o":"m 89 716 q 101 716 107 712 q 113 708 118 700 l 197 580 l 170 580 q 164 580 160 582 q 156 584 152 589 l 43 716 z"},"k":{"x_min":0,"x_max":492,"ha":492,"o":"m 134 728 l 134 284 l 157 284 q 164 284 170 286 q 176 288 184 296 l 384 485 q 389 490 395 494 q 400 498 410 498 l 452 498 l 232 289 q 227 284 222 280 q 218 276 212 272 q 220 268 226 263 q 232 258 238 251 l 468 0 l 426 0 q 420 0 414 3 q 408 6 403 12 l 194 236 q 186 244 178 248 q 172 251 156 251 l 134 251 l 134 0 l 86 0 l 86 728 z"},"u":{"x_min":0,"x_max":541,"ha":541,"o":"m 116 498 l 116 180 q 116 110 148 70 q 180 30 246 30 q 294 30 336 55 q 378 80 412 124 l 412 498 l 460 498 l 460 0 l 434 0 q 420 0 419 13 l 414 87 q 380 44 335 18 q 290 -8 234 -8 q 192 -8 162 5 q 130 18 110 42 q 90 67 79 102 q 68 136 68 180 l 68 498 z"},"]":{"x_min":0,"x_max":300,"ha":300,"o":"m 54 -114 q 54 -108 58 -104 q 62 -100 68 -100 l 172 -100 l 172 726 l 68 726 q 62 726 58 730 q 54 734 54 740 l 54 758 l 212 758 l 212 -132 l 54 -132 z"},"U":{"x_min":0,"x_max":734,"ha":734,"o":"m 366 36 q 418 36 458 54 q 498 72 526 104 q 554 135 569 178 q 584 220 584 270 l 584 708 l 634 708 l 634 270 q 634 212 616 161 q 598 110 563 72 q 528 34 478 13 q 428 -8 366 -8 q 304 -8 255 13 q 205 34 170 72 q 136 110 117 161 q 98 212 98 270 l 98 708 l 150 708 l 150 270 q 150 221 165 178 q 180 136 207 104 q 235 72 275 54 q 316 36 366 36 z"},"o":{"x_min":0,"x_max":541,"ha":541,"o":"m 270 506 q 324 506 366 487 q 408 469 438 436 q 466 402 482 355 q 497 308 497 249 q 497 190 482 144 q 466 96 438 63 q 408 30 366 12 q 324 -6 270 -6 q 217 -6 175 12 q 132 30 103 63 q 74 96 59 144 q 44 190 44 249 q 44 308 59 355 q 74 402 103 436 q 132 469 175 487 q 217 506 270 506 z m 270 31 q 315 31 348 46 q 382 62 404 90 q 426 118 437 159 q 448 199 448 249 q 448 298 437 339 q 426 380 404 408 q 382 437 348 452 q 315 468 270 468 q 226 468 193 452 q 160 437 137 408 q 115 380 104 339 q 92 298 92 249 q 92 199 104 159 q 115 118 137 90 q 160 62 193 46 q 226 31 270 31 z"},"N":{"x_min":0,"x_max":756,"ha":756,"o":"m 130 708 q 137 708 141 706 q 145 704 150 698 l 608 85 q 606 100 606 114 l 606 708 l 651 708 l 651 0 l 626 0 q 615 0 608 10 l 148 624 q 150 609 150 596 l 150 0 l 105 0 l 105 708 l 130 708 z"},"+":{"x_min":0,"x_max":580,"ha":580,"o":"m 308 579 l 308 354 l 524 354 l 524 317 l 308 317 l 308 90 l 270 90 l 270 317 l 54 317 l 54 354 l 270 354 l 270 579 z"},"G":{"x_min":0,"x_max":748,"ha":748,"o":"m 409 34 q 446 34 476 37 q 506 41 531 48 q 557 56 580 67 q 604 78 627 91 l 627 282 l 491 282 q 486 282 482 285 q 478 288 478 293 l 478 321 l 674 321 l 674 70 q 647 51 618 36 q 590 22 558 12 q 525 2 488 -3 q 450 -8 406 -8 q 329 -8 266 18 q 202 44 157 91 q 112 138 87 205 q 62 272 62 354 q 62 436 87 503 q 112 570 158 617 q 204 664 270 690 q 336 716 417 716 q 458 716 492 710 q 526 704 556 694 q 585 683 610 667 q 636 652 660 631 l 646 609 q 642 602 634 602 q 629 602 625 604 q 618 606 603 618 q 589 628 565 640 q 540 652 504 662 q 468 672 416 672 q 346 672 291 650 q 236 628 196 586 q 157 546 136 486 q 114 428 114 354 q 114 279 136 220 q 158 160 196 119 q 235 78 289 56 q 344 34 409 34 z"},"q":{"x_min":0,"x_max":546,"ha":546,"o":"m 460 498 l 460 -176 l 412 -176 l 412 88 q 379 44 335 19 q 292 -6 238 -6 q 146 -6 95 57 q 44 120 44 248 q 44 302 58 349 q 72 396 100 431 q 128 466 168 486 q 208 506 260 506 q 312 506 350 486 q 388 467 414 429 l 419 485 q 420 498 434 498 z m 251 32 q 300 32 340 58 q 380 83 412 128 l 412 392 q 385 432 350 450 q 314 468 270 468 q 226 468 192 452 q 160 436 137 407 q 115 378 104 337 q 92 296 92 248 q 92 136 134 84 q 174 32 251 32 z"},"d":{"x_min":0,"x_max":546,"ha":546,"o":"m 434 0 q 421 0 419 13 l 414 92 q 381 46 337 20 q 292 -6 238 -6 q 146 -6 95 57 q 44 120 44 248 q 44 302 58 349 q 72 396 100 431 q 128 466 168 486 q 208 506 260 506 q 311 506 348 487 q 385 468 412 432 l 412 728 l 460 728 l 460 0 z m 251 32 q 300 32 340 58 q 380 83 412 128 l 412 391 q 383 434 348 451 q 314 468 270 468 q 226 468 192 452 q 160 436 137 407 q 115 378 104 337 q 92 296 92 248 q 92 136 134 84 q 174 32 251 32 z"},"1":{"x_min":0,"x_max":580,"ha":580,"o":"m 154 37 l 317 37 l 317 611 q 317 628 318 647 l 162 508 q 158 504 150 504 q 142 504 138 510 l 123 530 l 328 710 l 364 710 l 364 37 l 519 37 l 519 0 l 154 0 z"},"5":{"x_min":0,"x_max":580,"ha":580,"o":"m 483 687 q 483 677 476 670 q 470 664 455 664 l 199 664 l 156 428 q 190 436 220 440 q 250 444 278 444 q 332 444 374 428 q 416 412 445 384 q 473 356 488 316 q 502 278 502 232 q 502 176 482 131 q 463 87 430 56 q 396 25 352 8 q 308 -8 258 -8 q 228 -8 202 -3 q 175 2 152 11 q 128 20 108 32 q 89 43 74 55 l 88 74 q 93 82 102 82 q 109 82 121 74 q 134 67 153 58 q 172 49 198 42 q 224 34 260 34 q 300 34 336 47 q 372 60 398 86 q 424 110 439 147 q 454 184 454 230 q 454 268 442 300 q 431 332 408 355 q 386 378 351 391 q 316 404 269 404 q 240 404 208 399 q 176 394 140 384 l 110 394 l 165 708 l 483 708 z"}}}
